<mxfile host="app.diagrams.net" agent="Mozilla/5.0 (Windows NT 10.0; Win64; x64) AppleWebKit/537.36 (KHTML, like Gecko) Chrome/132.0.0.0 Safari/537.36 OPR/117.0.0.0 (Edition std-2)" version="26.2.3">
  <diagram id="Ht1M8jgEwFfnCIfOTk4-" name="Page-1">
    <mxGraphModel dx="1003" dy="576" grid="1" gridSize="10" guides="1" tooltips="1" connect="1" arrows="1" fold="1" page="1" pageScale="1" pageWidth="1169" pageHeight="827" math="0" shadow="0">
      <root>
        <mxCell id="0" />
        <mxCell id="1" parent="0" />
        <mxCell id="C7zA0iFIi32h_nJz_R8H-20" value="" style="edgeStyle=orthogonalEdgeStyle;rounded=0;orthogonalLoop=1;jettySize=auto;html=1;" edge="1" parent="1" source="UEzPUAAOIrF-is8g5C7q-115" target="C7zA0iFIi32h_nJz_R8H-8">
          <mxGeometry relative="1" as="geometry" />
        </mxCell>
        <mxCell id="C7zA0iFIi32h_nJz_R8H-21" value="" style="edgeStyle=orthogonalEdgeStyle;rounded=0;orthogonalLoop=1;jettySize=auto;html=1;" edge="1" parent="1" source="UEzPUAAOIrF-is8g5C7q-115" target="C7zA0iFIi32h_nJz_R8H-17">
          <mxGeometry relative="1" as="geometry" />
        </mxCell>
        <mxCell id="C7zA0iFIi32h_nJz_R8H-22" value="" style="edgeStyle=orthogonalEdgeStyle;rounded=0;orthogonalLoop=1;jettySize=auto;html=1;" edge="1" parent="1" source="UEzPUAAOIrF-is8g5C7q-115" target="C7zA0iFIi32h_nJz_R8H-2">
          <mxGeometry relative="1" as="geometry" />
        </mxCell>
        <mxCell id="C7zA0iFIi32h_nJz_R8H-42" style="edgeStyle=orthogonalEdgeStyle;rounded=0;orthogonalLoop=1;jettySize=auto;html=1;" edge="1" parent="1" source="UEzPUAAOIrF-is8g5C7q-115">
          <mxGeometry relative="1" as="geometry">
            <mxPoint x="399" y="400" as="targetPoint" />
          </mxGeometry>
        </mxCell>
        <mxCell id="UEzPUAAOIrF-is8g5C7q-115" value="Lambda&lt;br&gt;function" style="outlineConnect=0;fontColor=#232F3E;gradientColor=none;fillColor=#D05C17;strokeColor=none;dashed=0;verticalLabelPosition=bottom;verticalAlign=top;align=center;html=1;fontSize=12;fontStyle=0;aspect=fixed;pointerEvents=1;shape=mxgraph.aws4.lambda_function;labelBackgroundColor=#ffffff;" parent="1" vertex="1">
          <mxGeometry x="360" y="282" width="78" height="78" as="geometry" />
        </mxCell>
        <mxCell id="C7zA0iFIi32h_nJz_R8H-31" value="" style="edgeStyle=orthogonalEdgeStyle;rounded=0;orthogonalLoop=1;jettySize=auto;html=1;" edge="1" parent="1" source="UEzPUAAOIrF-is8g5C7q-116" target="UEzPUAAOIrF-is8g5C7q-118">
          <mxGeometry relative="1" as="geometry" />
        </mxCell>
        <mxCell id="UEzPUAAOIrF-is8g5C7q-116" value="Amazon S3" style="outlineConnect=0;fontColor=#232F3E;gradientColor=#60A337;gradientDirection=north;fillColor=#277116;strokeColor=#ffffff;dashed=0;verticalLabelPosition=bottom;verticalAlign=top;align=center;html=1;fontSize=12;fontStyle=0;aspect=fixed;shape=mxgraph.aws4.resourceIcon;resIcon=mxgraph.aws4.s3;labelBackgroundColor=#ffffff;" parent="1" vertex="1">
          <mxGeometry x="720.0000000000002" y="560" width="78" height="78" as="geometry" />
        </mxCell>
        <mxCell id="C7zA0iFIi32h_nJz_R8H-32" value="" style="edgeStyle=orthogonalEdgeStyle;rounded=0;orthogonalLoop=1;jettySize=auto;html=1;" edge="1" parent="1" source="UEzPUAAOIrF-is8g5C7q-118" target="C7zA0iFIi32h_nJz_R8H-6">
          <mxGeometry relative="1" as="geometry" />
        </mxCell>
        <mxCell id="C7zA0iFIi32h_nJz_R8H-33" value="" style="edgeStyle=orthogonalEdgeStyle;rounded=0;orthogonalLoop=1;jettySize=auto;html=1;" edge="1" parent="1" source="UEzPUAAOIrF-is8g5C7q-118" target="C7zA0iFIi32h_nJz_R8H-7">
          <mxGeometry relative="1" as="geometry" />
        </mxCell>
        <mxCell id="UEzPUAAOIrF-is8g5C7q-118" value="Amazon Athena" style="outlineConnect=0;fontColor=#232F3E;gradientColor=#945DF2;gradientDirection=north;fillColor=#5A30B5;strokeColor=#ffffff;dashed=0;verticalLabelPosition=bottom;verticalAlign=top;align=center;html=1;fontSize=12;fontStyle=0;aspect=fixed;shape=mxgraph.aws4.resourceIcon;resIcon=mxgraph.aws4.athena;labelBackgroundColor=#ffffff;" parent="1" vertex="1">
          <mxGeometry x="720" y="680" width="78" height="78" as="geometry" />
        </mxCell>
        <mxCell id="C7zA0iFIi32h_nJz_R8H-24" value="" style="edgeStyle=orthogonalEdgeStyle;rounded=0;orthogonalLoop=1;jettySize=auto;html=1;" edge="1" parent="1" source="UEzPUAAOIrF-is8g5C7q-119" target="C7zA0iFIi32h_nJz_R8H-4">
          <mxGeometry relative="1" as="geometry" />
        </mxCell>
        <mxCell id="UEzPUAAOIrF-is8g5C7q-119" value="Amazon&lt;br&gt;DynamoDB&lt;br&gt;" style="outlineConnect=0;fontColor=#232F3E;gradientColor=#4D72F3;gradientDirection=north;fillColor=#3334B9;strokeColor=#ffffff;dashed=0;verticalLabelPosition=bottom;verticalAlign=top;align=center;html=1;fontSize=12;fontStyle=0;aspect=fixed;shape=mxgraph.aws4.resourceIcon;resIcon=mxgraph.aws4.dynamodb;labelBackgroundColor=#ffffff;spacingTop=5;" parent="1" vertex="1">
          <mxGeometry x="600.0000000000002" y="282" width="78" height="78" as="geometry" />
        </mxCell>
        <mxCell id="C7zA0iFIi32h_nJz_R8H-35" value="" style="edgeStyle=orthogonalEdgeStyle;rounded=0;orthogonalLoop=1;jettySize=auto;html=1;" edge="1" parent="1" source="UEzPUAAOIrF-is8g5C7q-122" target="C7zA0iFIi32h_nJz_R8H-7">
          <mxGeometry relative="1" as="geometry" />
        </mxCell>
        <mxCell id="UEzPUAAOIrF-is8g5C7q-122" value="IAM Roles" style="outlineConnect=0;fontColor=#232F3E;gradientColor=none;fillColor=#C7131F;strokeColor=none;dashed=0;verticalLabelPosition=bottom;verticalAlign=top;align=center;html=1;fontSize=12;fontStyle=0;aspect=fixed;pointerEvents=1;shape=mxgraph.aws4.role;labelBackgroundColor=#ffffff;" parent="1" vertex="1">
          <mxGeometry x="840.0000000000002" y="577" width="78" height="44" as="geometry" />
        </mxCell>
        <mxCell id="UEzPUAAOIrF-is8g5C7q-123" value="Amazon&lt;br&gt;CloudWatch Logs&lt;br&gt;" style="outlineConnect=0;fontColor=#232F3E;gradientColor=none;gradientDirection=north;fillColor=#F34482;strokeColor=none;dashed=0;verticalLabelPosition=bottom;verticalAlign=top;align=center;html=1;fontSize=12;fontStyle=0;aspect=fixed;shape=mxgraph.aws4.cloudwatch;labelBackgroundColor=#ffffff;" parent="1" vertex="1">
          <mxGeometry x="960.0000000000002" y="680" width="78" height="78" as="geometry" />
        </mxCell>
        <mxCell id="C7zA0iFIi32h_nJz_R8H-18" value="" style="edgeStyle=orthogonalEdgeStyle;rounded=0;orthogonalLoop=1;jettySize=auto;html=1;" edge="1" parent="1" source="C7zA0iFIi32h_nJz_R8H-1" target="C7zA0iFIi32h_nJz_R8H-3">
          <mxGeometry relative="1" as="geometry" />
        </mxCell>
        <mxCell id="C7zA0iFIi32h_nJz_R8H-1" value="" style="shape=image;verticalLabelPosition=bottom;labelBackgroundColor=default;verticalAlign=top;aspect=fixed;imageAspect=0;image=https://static-00.iconduck.com/assets.00/reddit-icon-256x256-7e3aoes6.png;" vertex="1" parent="1">
          <mxGeometry x="120" y="281" width="80" height="80" as="geometry" />
        </mxCell>
        <mxCell id="C7zA0iFIi32h_nJz_R8H-23" value="" style="edgeStyle=orthogonalEdgeStyle;rounded=0;orthogonalLoop=1;jettySize=auto;html=1;" edge="1" parent="1" source="C7zA0iFIi32h_nJz_R8H-2" target="UEzPUAAOIrF-is8g5C7q-119">
          <mxGeometry relative="1" as="geometry" />
        </mxCell>
        <mxCell id="C7zA0iFIi32h_nJz_R8H-2" value="" style="sketch=0;points=[[0,0,0],[0.25,0,0],[0.5,0,0],[0.75,0,0],[1,0,0],[0,1,0],[0.25,1,0],[0.5,1,0],[0.75,1,0],[1,1,0],[0,0.25,0],[0,0.5,0],[0,0.75,0],[1,0.25,0],[1,0.5,0],[1,0.75,0]];outlineConnect=0;fontColor=#232F3E;fillColor=#01A88D;strokeColor=#ffffff;dashed=0;verticalLabelPosition=bottom;verticalAlign=top;align=center;html=1;fontSize=12;fontStyle=0;aspect=fixed;shape=mxgraph.aws4.resourceIcon;resIcon=mxgraph.aws4.comprehend;" vertex="1" parent="1">
          <mxGeometry x="480" y="282" width="78" height="78" as="geometry" />
        </mxCell>
        <mxCell id="C7zA0iFIi32h_nJz_R8H-19" value="" style="edgeStyle=orthogonalEdgeStyle;rounded=0;orthogonalLoop=1;jettySize=auto;html=1;" edge="1" parent="1" source="C7zA0iFIi32h_nJz_R8H-3" target="UEzPUAAOIrF-is8g5C7q-115">
          <mxGeometry relative="1" as="geometry" />
        </mxCell>
        <mxCell id="C7zA0iFIi32h_nJz_R8H-3" value="" style="sketch=0;outlineConnect=0;fontColor=#232F3E;gradientColor=none;fillColor=#E7157B;strokeColor=none;dashed=0;verticalLabelPosition=bottom;verticalAlign=top;align=center;html=1;fontSize=12;fontStyle=0;aspect=fixed;pointerEvents=1;shape=mxgraph.aws4.eventbridge_scheduler;" vertex="1" parent="1">
          <mxGeometry x="240" y="282" width="78" height="78" as="geometry" />
        </mxCell>
        <mxCell id="C7zA0iFIi32h_nJz_R8H-26" value="" style="edgeStyle=orthogonalEdgeStyle;rounded=0;orthogonalLoop=1;jettySize=auto;html=1;" edge="1" parent="1" source="C7zA0iFIi32h_nJz_R8H-4" target="C7zA0iFIi32h_nJz_R8H-9">
          <mxGeometry relative="1" as="geometry" />
        </mxCell>
        <mxCell id="C7zA0iFIi32h_nJz_R8H-4" value="" style="sketch=0;outlineConnect=0;fontColor=#232F3E;gradientColor=none;fillColor=#E7157B;strokeColor=none;dashed=0;verticalLabelPosition=bottom;verticalAlign=top;align=center;html=1;fontSize=12;fontStyle=0;aspect=fixed;pointerEvents=1;shape=mxgraph.aws4.eventbridge_scheduler;" vertex="1" parent="1">
          <mxGeometry x="720" y="282" width="78" height="78" as="geometry" />
        </mxCell>
        <mxCell id="C7zA0iFIi32h_nJz_R8H-6" value="Amazon S3" style="outlineConnect=0;fontColor=#232F3E;gradientColor=#60A337;gradientDirection=north;fillColor=#277116;strokeColor=#ffffff;dashed=0;verticalLabelPosition=bottom;verticalAlign=top;align=center;html=1;fontSize=12;fontStyle=0;aspect=fixed;shape=mxgraph.aws4.resourceIcon;resIcon=mxgraph.aws4.s3;labelBackgroundColor=#ffffff;" vertex="1" parent="1">
          <mxGeometry x="600.0000000000002" y="680" width="78" height="78" as="geometry" />
        </mxCell>
        <mxCell id="C7zA0iFIi32h_nJz_R8H-36" value="" style="edgeStyle=orthogonalEdgeStyle;rounded=0;orthogonalLoop=1;jettySize=auto;html=1;" edge="1" parent="1" source="C7zA0iFIi32h_nJz_R8H-7" target="UEzPUAAOIrF-is8g5C7q-123">
          <mxGeometry relative="1" as="geometry" />
        </mxCell>
        <mxCell id="C7zA0iFIi32h_nJz_R8H-7" value="" style="sketch=0;points=[[0,0,0],[0.25,0,0],[0.5,0,0],[0.75,0,0],[1,0,0],[0,1,0],[0.25,1,0],[0.5,1,0],[0.75,1,0],[1,1,0],[0,0.25,0],[0,0.5,0],[0,0.75,0],[1,0.25,0],[1,0.5,0],[1,0.75,0]];outlineConnect=0;fontColor=#232F3E;fillColor=#8C4FFF;strokeColor=#ffffff;dashed=0;verticalLabelPosition=bottom;verticalAlign=top;align=center;html=1;fontSize=12;fontStyle=0;aspect=fixed;shape=mxgraph.aws4.resourceIcon;resIcon=mxgraph.aws4.quicksight;" vertex="1" parent="1">
          <mxGeometry x="840" y="680" width="78" height="78" as="geometry" />
        </mxCell>
        <mxCell id="C7zA0iFIi32h_nJz_R8H-8" value="" style="sketch=0;outlineConnect=0;fontColor=#232F3E;gradientColor=none;fillColor=#E7157B;strokeColor=none;dashed=0;verticalLabelPosition=bottom;verticalAlign=top;align=center;html=1;fontSize=12;fontStyle=0;aspect=fixed;pointerEvents=1;shape=mxgraph.aws4.cloudwatch_logs;" vertex="1" parent="1">
          <mxGeometry x="360" y="160" width="78" height="58" as="geometry" />
        </mxCell>
        <mxCell id="C7zA0iFIi32h_nJz_R8H-28" value="" style="edgeStyle=orthogonalEdgeStyle;rounded=0;orthogonalLoop=1;jettySize=auto;html=1;" edge="1" parent="1" source="C7zA0iFIi32h_nJz_R8H-9" target="C7zA0iFIi32h_nJz_R8H-12">
          <mxGeometry relative="1" as="geometry" />
        </mxCell>
        <mxCell id="C7zA0iFIi32h_nJz_R8H-29" value="" style="edgeStyle=orthogonalEdgeStyle;rounded=0;orthogonalLoop=1;jettySize=auto;html=1;" edge="1" parent="1" source="C7zA0iFIi32h_nJz_R8H-9" target="UEzPUAAOIrF-is8g5C7q-116">
          <mxGeometry relative="1" as="geometry" />
        </mxCell>
        <mxCell id="C7zA0iFIi32h_nJz_R8H-9" value="Lambda&lt;br&gt;function" style="outlineConnect=0;fontColor=#232F3E;gradientColor=none;fillColor=#D05C17;strokeColor=none;dashed=0;verticalLabelPosition=bottom;verticalAlign=top;align=center;html=1;fontSize=12;fontStyle=0;aspect=fixed;pointerEvents=1;shape=mxgraph.aws4.lambda_function;labelBackgroundColor=#ffffff;" vertex="1" parent="1">
          <mxGeometry x="720" y="414" width="78" height="78" as="geometry" />
        </mxCell>
        <mxCell id="C7zA0iFIi32h_nJz_R8H-12" value="" style="sketch=0;outlineConnect=0;fontColor=#232F3E;gradientColor=none;fillColor=#E7157B;strokeColor=none;dashed=0;verticalLabelPosition=bottom;verticalAlign=top;align=center;html=1;fontSize=12;fontStyle=0;aspect=fixed;pointerEvents=1;shape=mxgraph.aws4.cloudwatch_logs;" vertex="1" parent="1">
          <mxGeometry x="840" y="424" width="78" height="58" as="geometry" />
        </mxCell>
        <mxCell id="C7zA0iFIi32h_nJz_R8H-17" value="" style="shape=image;verticalLabelPosition=bottom;labelBackgroundColor=default;verticalAlign=top;aspect=fixed;imageAspect=0;image=data:image/png,iVBORw0KGgoAAAANSUhEUgAAAPcAAAD2CAYAAAAK0BH2AAAAAXNSR0IArs4c6QAAAARnQU1BAACxjwv8YQUAAAAJcEhZcwAADsMAAA7DAcdvqGQAACeKSURBVHhe7Z13dJzlne+/0zTqxSpWc1GxLTfZuAE2uCRgIHAJZJOQbMqSzQaye3Nv9hxykntzc7Ps7slmc0K2pOw9sNlAEggJhGJCM5hiGzdcwJa7bMuyrGr1On3uH98ZNPPofTVqU/TO73POe2S9zzt6R/J83+f3/J5fMflvhR+CIBgOs3pCEARjIOIWBIMi4hYEgyLiFgSDIuIWBIMi4hYEgyLiFgSDIuIWBIMi4hYEgyLiFgSDIuIWBIMi4hYEgyLiFgSDIuIWBIMi4hYEgyLiFgSDIuIWBIMi4hYEgyLiFgSDIuIWBIMi4hYEgyLiFgSDIuIWBIMi4hYEgyLiFgSDIuIWBIMi4hYEg2KSXmFJis0OWKyAyQzAD3jcgNcD+H2AP1YfCRNgtfEwhcwzfj/gcY2+H2FKiLiTlRU3AfOWAhnZgNsFNJwAWi4AfZ2A26leHR2sKUBlLVBRC2Tl8ZzfDzgGgfNHgOYLwHC/+iphgoi4kw17OrDpHmDzZ4CyRYDFxtlxqBcYGQQGeoCedqCzGehqBlovAh1XKHqXQ/1pU2PeEmD1x3jkFQOZuRQ6QCvC6+H7aL0EnDkAvP8q34/Pq/wgYTxE3MlGTgHwrceB5ZuAzMBsGYrLAQz1Af1dPLpbgb6OwPfdQH8n/93TzmOgmyZ0JFPeZKKAa7cAa7fza8VKnjOZ1KvJYC/QXA+c3Au89zxwuQ4Ykpl8ooi4kwmLFSipAh55F5hTrI6Oj9tJcXc1cxZtvwy0NVD8gz2c9UeGgJEBPhwcg1zHB0VvswM11wN3/w2wahuQW6TeQR/HEPDO08BbTwIXPxCBTxARdzKRmcsZ+1tPcAafCXxeoKeDQm+9CFw9zxm29RJNa7cD8PmArDnAX/8bsHyjtsUwEV79T2Dn48C5Q/yZwriIuJOJuQuBbZ8H7vsOkJGjjk4dn5frZK8X8LoDhwfovcb1em8HYE8D1t8OpGeHe8YnQ981YMcvgJd+weWBMC5T/CsLs5K0TKCsmub5TGK20OxOTedDI7uAjrLyxZypN9wBrP44kDYNYQOc/VdsAlZvU0cEDabxlxZmHakZQEnlWHH7fJwVT+wGPtgFXPwQuHZ1+t5pm50meF4xkFsImKf5cTNbgPlLuXYXImJ5uAoPqycFA2I2A/OXAdv/AsjIDZ9BPYF97neeBur2cr3ccYWC72oBBrroMHM5uW1msU5fqFMlJY0m+aFXaf4LusiaO1lITQc23Qt850l1hMJ960lgx8+AxtPhY0XzgQXL+GAoqRw9MgJ701YbYLEEBG+Zntk9Uer2AD//BtB0lh55QRMRd7JQNB/Y+jngr36kjjCA5Xf/BOz+A2fsUMyWgIBtFLDFSjEXLWB02cIV3F4rqQQKyugwizan9wOPPgRcOMboOkETEXeyULMBuO2rwJ0PqCM0v3/0ZUaDDfWpo9rYA86zjByu5dMy+e+cAqCgHCitBkqr+BDIKeD6e6Y4fQB47CGg/qiIexxiYEMJCUFOEWdvFZ8PcAwzKMUxrI7q4xxmAEvTWYrsxG6Gie59Dnj7Ke5Jv/DvwLu/BxpPqa+eHl43A1kiRcUlOSLuZCFXR9weJ2fuwZ7pO6i8Hs78LRcZMrr7GWDPM8C5I+qVUyco7J726XvzDY6IOxkwmxluWlyhjtCZ1nyBwowGXa1AS/3MCXGwD7jWRI+5RKmNi4g7GcicA2TnAymp6gjF0nAiel7nrhbg8imGqM6EwK+eA869r54VNBBxJwP5pRS3VvaVY5B53NGauX1e/vxdv53cml4LtxO48AH34oWIiLiTgYIyiluLkUGukaMlboCOt/0vAvVHplZ8we+nsA+/BhzZSbNciIiIOxkomq+dYul1M2e64wrgi6K4RwZp+r/9NCusDPaoV+jj99Mzf2ofM8JO7WNEnRAREXcyUFoNzClVzwLDA1wTx8I55RgCXvtP4PX/As4c5EPF7dTfzgrO1v1dwOWTwG8eBj58Z3IPhiRHxJ0MlFYB+SXqWQqnq1k9G132vQg8/n+Ap/6RwSh6s7DLwfGn/hH45y8A5w/TPyBMGIlQSwY2f4apnio97cClOgonltjT6QMoKAMKy4H8Msa+I2iGj7Day7UmPny626LrEzAoIu5kILeIglJxOVgWyTGkjsSGYF21rDkh4al+hpQOdMeuCqtBEXEbCYuVcd7BfG2TGUjLYNKH1jYYwP3tUA+2z0dROae5bSXEHRH3bMJsDqRWBrOzAmmWZgsztdIygbkLgLQsXm+xMVsrPWdsgYYggz1A05nR791OljEOZod53RR8sJSSxx0ofBhlB5wwbUTcs4ncokA+dSDFsqSK69a8uYEgFTNFHppTHewqojNxw+cLX8/6/RRu8FzTOe5T93cyTLXhBI8B8VonOiLuRCYzj7W9K1YAC1cChfPYmSM1k+Z2aiYLD9rsM5tSGcrwANfmbie91UO9DCVtrmc5pvojQPPF6SedCDOOiDsRKa5kIYTq64AFy2lqFy9k9RM98zqWeNxAbzvLMV05wy2r0weAa1dmriuJMG1E3ImCObBmXrAMWLkZWLMdWLx2ZksQRwOPi0Em+3cAH7zFMk0SaJIQiLgTAZOJs/LidcCXH6YpHnSKzRacI8ChlxmBdmIPmxHoRZ8JMUHEnQjY7MDaW4G/+Skwp4Tf621dJSp+P+AaAc4dBp77CXB0F78X4oaEnyYCtVuA7V+hwywldfYJGwHrw55OP8GfPQTUbp562yBhRhBxx5vcImDZRvbLjuQsGxlkSaTh/sTdZ07PBpasB27/aqBFcITfSYga0pQg3tRsAG68m+ttLXw+BpVcPsUGePVHmX/dd41BLbZUlh5OJCxW7sO3XmR8+EQrqgoziog73tz8aTah18q39vkojA/eBJ59BHjlUWDfC8DBP7Htj9XG2mjBAJZEwWTie0tNZ0rpFaXRgRATEugTkaSUVtOJpkV/F3B0J/D494BT79EsR7Btbjvw3L8Ab/469mmbE2XxejYtsKepI0IMEHHHm+wCIEOnS0dbA/Daf1G8Lkf4Otvn5ax+Yg/w/muhr0ocbHZWXJ1Xo44IMUDEHS9MJn747WlM8FAZGQTaLrHS53hdNZrPc/spUZlTzIg7IeaIuOOFyRxos5OijhDHIJvWR/KMD/byukQlu4DJLULMEXHHC4uFhQvtGeoIMVs4o5st6kg4ZnPka+JJZi6z1oSYI+JOVLLyuZ2UN3d88crMKOgg4k5UzGaK+5YvjdYX02LxOmDDJ9SzgiDiTmjmlAA3/Rmw8V6a8KHlk9KzuT++6VP6ATBCUiPiTmTSMpnXfefXgK2fA9bcOhqquule4M4HgfW3aQfACEmPZIXFC1sKsGgt8MBPgGU3qqPaXLsKdDaxYmjFSn5NdNovA+88Dfzqu+qIEGVk5p5N5JcA1WsDwtbYGxeEEETcswmzhTO+NQX6FQ8FgYi4BcGgiLgFwaCIuAXBoIi4BcGgyFZYvDBbmDF13cdjFz5qzwBKKoCN92g3BowGshUWN0Tc8UKzw2WUycoDlt4AfOUHsSteKOKOGyLuZCI7H1i1Ffjmo/x3LBBxxw0R91QxmwGrncEkFiu/jpe9lQhk5TF89as/4r9jgSru9GwWqJjM38rvZy8yrwdwOQGPk/XlhHERcU+V3CKg5gbGfpdWA/OXAoXl6lWJRfCBlJkTu4KKqrg/97+55p/M38rjAhrqgJYLwPHdwKl97DoqjIuIe6KYTJxxam4Alt4IVK1iSmZGLhM8gjOSEI4q7r/8J2Db54G5C9Ur9fEHqsCODAK914Cms8CJ3cD+F4CBbsDrVV8hyFbYBLGns8jfHV8D7vo6cMsXmUO9aC1QWsWCCiLs6GEy0wFYOA9YtAa44S5g+/38/6hcxYerMAYRdyQysvkB+vgXgXu/yQYC82qAVJ3ySEL0Sc9mM4e7HgS23MclkWUSa/gkQcQ9HjY7ULEKuP0vgc9/l2V6Y7VtJYyP2QIUzmfbohvuBrIL1SuSHhH3eCxZD9z5ANeIQmKSmQfc9Ck+gIUwRNxaWGzA/Bp+YNbcIiZ4ImM206JacRNQvWZ2FLCIESJuFbOZe8Db/hyo3QrkFatXCImGPQ2Yv4zrb3FsfoSIWyUti3vXN38GyC9VR4VEZU4xcP2dLCQpfhFAxK1gMgEF5aw4WlguH5LZhM0OFJQCKzazk4sg4g7DmgKUVQOb7hHzbjZiSwXW3gLkSocTiLgVCudxTzu7YHKxz0JiYLMDyzYBhWXiWBNxK8xdCFTUjhb/F2YXZjOQWwjMrWAqbZIj4g6leCFQsUI9K8w25i2ZXGKKQRFxB7HYgKIFQPkSdUSYDj5feGKHycQjmixYTq95kiPiDlJWxaL/wszS3wV0NY9+n5LGtNNoUlBGv0mSI+IOUlIt+9rRoL8L6GzmbJ2azq3GaBeKyC/lvndKqjqSVIi4gxTNB3Ik+WBG8biBjkag+TyXPfNqmB4b7fgBezoda0m+3y3iDiKm3MzT2wFcPQ+0N7IN0rKNsavdllOU9OtuEXeQ/FIgW7ZPZgy/H7hwDLhyBnA7OZsu2xi7B+icEqCkSj2bVIi4g2TmSUWPmcLvBxxDwN4/Aqf3M3KscB6wfFPsZu7sfCA/RvXgExQRdzC9MzM3dkUDjY5jCHjrSeDCB8DIAFBayfJU2fkMNIkF6dmxe5AkKDH6SycwZjOQV5L0ntUZo7cDOPwaiyJ2NHLtu3QjsO722P6NM3PpvEtiRNxmC72q0fbgJgM9bcDxd4DXfwmcex/weFjNZsMdjBiLZbx+WiZDUJM4lFjEbbbQqxqr3lmGw8+64oM9wJGdwI6fA0feYAOB8iUsKLnudvVFscFqAzJyYrcUSDCS87cWZg6Pmw0Dfv194Pc/BM4d5mxZUgXc923WN4ulOR5KagZry5uTc/YWcQuTp6MROLkX2Pkr4P/9LfDoQ8C+F4C2y7SAVm0D7v8HoHYLmzZEO5ZcD5OZD5o43T7eSMeRtCxWOP3EA0D5YnU0vvh8gGsYaGtk547uVmCwl97oeNLbzs4fXS1s8dPfydmxpBJYcTPLHa3aAqRlx9ckPn0AeOwhoP4o4Hapo4ZHxJ2I4nY76XVubwTaGoDLJ2n6tl4CetqBoV71FfHBbOFMXVAGzF3Afey1t7FhQCIg4hZxJ4y4/X7ANQJ0XKFTau+zwMn3RsfNloCZGTA344U5cP+0TKC4kmWp1t7GfPhE2nUQcYu4E0bczmFg/4vAricZujnYy1k8SOE81uhOz6bDyhongecUcIehpJrvx55Gp5nZEr/1tRYibhF33MXtcXPtuu9Firv5PDDcT2/vvBpg5WbWdssv5TmrjV/jFVFnszN9MzUjsbcQRdwi7riL+8xBxmEffp3CtqYAFSu5hl20Bli4kjOkxL5PjiQXd5we/QmG18Me0PGgrQE4sIOx2FdOM8li+SZg+1eAe/4HO59UrBRhC5NGxB1s7O71qCPRxe/nevrdPwAH/kTvuD0dqF4N3PcdYPtfsKabMHX8fm4nJikibq+HW0wjg+pIdPG4aDYefo2meGomTfAHfwLUXC91t2cCt4Nbh0kqcBG3z8vgEJdDHYkePi9n6h0/AxpPATBR2F96mA3t7OmJ5XWerbiC4g6pvppEiLh9Pn4A3DEUd38396/PHGTCRfliYP0dXGuLsGeGwd7AQ3uE5nkSIuL2+7jt1N8NOEfU0ejQ3QIc/BM/gBYbzfD1d3CLSYQ9M/S2M2Q3iRFxB2m9xCd9tPF5GZN9YjcdanlzaZJX1qpXCtMhWFI5iRFxB+lq5gci2nS1Ao2nR9eCtVu4jy3MLP1dQGeLejapEHEH6YyRuLtbgOb6USdPufS1igrdrUDrRfVsUiHiDtJ+mWWCok1vBxNDgkgzhJlnsBfoaIrNMiuBEXEHCX4YQhM1osFQP9DXScdZWhaFLdFnM0tLPX0o8c57jzMi7iBDvVwPR9s097i47WaxMkUyNYETL2Yr5w4zMCjJEXGH0h2oLBILTCZmVcUzL9uoNJxkyackR8QdSnsjq57ECpOJ0WnCzOD1AE1n6Ugb6lNHkw4Rdyhtl9klY7g/flliwtRxOxn519UMeN3qaNIh4g6lv5ON666cjX2WmDA9fF56yY++wRgCQcQ9hu424OhOelqTNCZ5VuIYZrvgE+9yN0IQcY+hqxl473muv6O9LSbMHB2NLHjhGFZHkhYRt4rbSWG/8UTSJx7MGhxDQNM54MjrsU3dTXBE3Cp+P9vOHnqFvaVjEbUmTI+GOvYp62pJ2txtLUTcWng93O/evwOo2yNruESm4wp9JMfeUEeSHhH3eBx4Cdj5OHByD+AYFAdbIhG0sN57nv9P7Y3qFUmPiDsSx98Ffv8j4K2nAGdyxyonFI5B4JXHgDceZ0SaMAYRdyRcDuZfv/QfwKPf4kzReVW9SogVvR1cX//672hVNV9gvL4wBmlKMFHMZiC7gJ0/FiwHSiqAOSVAdv7kOn8c2QnsfgbougosWgs88BNg2Y3qVdHD7QoU6Z9l23weJ9Bxlb6QxlPAxQ/FgRYBEfdUsKZQ1CWV7HBptqhX6NPWwAg413B8xD3YAzz+PX6dLQQbJF45S6spyVM5J4qIO17YUuIj7q4W4Bvr+VUwNJOwJwVBmE3IzB0v4jVzjwwy+m5kQB2JDoM9wMXjTOgQYoqIO17ES9w+LyvO+GKU9dbZzEaHz/xYHRGijIg7XsRL3LGm/TLwztPAr76rjghRRtbcgmBQRNyCYFBE3IJgUETcgmBQRNxCZHw+YHgAaLnI0NWGEwyCmW0hrEmGiFsYH5+XjRrqj3J//Lf/wG2tAy8BrQ1J3f860RFxC+PT1Qy89HPgkfuBF38KHHsT2Pc8t7Z+8Q3g2C52UBESDhG3oI3fDzhHgF1PAvteYMLGcD9nascwI8/OHwae+1fg/BGa7UJCIeIWtPG62b2jbg9bDns1UiuH+oELx4AP32HNdyGhEHHHC7+fcd6J2hnD4wYu19FxNl5F0WB++EC3OiLEGRF3vPB6GJqZqM0P/D5goCdylRO/jw43vet8XuneEidE3PEiOHOPDOgLI56YLUDeXMCWqo6EE+xWatbpVtrVylJIQswRcccTv5/VRa4lYE02awqweD2QX8p/65GSCqy/HZhTrI6Q9kagUQoYxgMRd7yp28O1baJhtgCF5cCaW4HKWm2BZ2QD1WuA2q2sL6fiGOLSo7VBHRFigOXhKjysnhRiyEAP67AtXAGkZaqj8cNkAixWIHsOYLHRqeb1MFU1LQsomg8svRHYdA+waiuQmq7+BLZDPvASt8qEmCPijjduB2C1suDivBpWWU0ksguAihXAvKUA/EBuETBvCbDpXuCOrwJrt4+d1YMFDXf8nP27hvvDx4WYIMUaEoGMbIrkKz8Aiis5YyYSfh+3xpwj9H6bTBR0Sqr2e3UOA/tfBP74LyxBLOWH44KIOxEwm4G8YqB2C/DZbwPliwG7hpk7G+jrBE7uBZ59hA36YlWrTRiDmOWJgN/PVkVdLWyTk5oBZORqr2MTmZYLwPuvAG8/BZw5wBlciBsi7kTB76fTqulMICLMFHBeZdJzbTKpr0gM/D5gqJdbegdfZr20E7slcCUBELM8USmtBq6/E7j1fqConB5qq21yrYuiic8LuJwUdv0xNuQ7+R57eQkJgYg7UbFYKejCcmD5TcDWzwHVq4H0bPXK+HDtKlC3G3j3D4wtH+xh8QafT71SiBMi7kQm6JXOzue+cvlioGo1sHgdsHAlkJ41uT5l08E5zEb35w4Dl04AzecZoHKtCRjso3kuJBQi7tlEZi5FXrYYKF7I0NA5JaNfs/MpeItNfeXkcI4A3a1MCOlupaOvu5UNBprPM+Ksv3P8bDEh7oi4ZzN5c4HiCq7PSyqB/DIgrwjIyAFS0rhGT80Yf53u99H5FUw/dTqAvmtA6yVWYWm5yKM7QuqnkHCIuI1GanpgJi/l+rykihFweng9wFAfxTzcxywucYoZAhG30TCZuA43Wzhja0WQqQRnb7+PXnBxihkCEbcgGJRxFmOCIMxmRNyCYFBE3IJgUETcgmBQRNyCYFBE3IJgUETcgmBQRNyCYFBE3IJgUCRCzWQC7GlAzQ1MxJgowwNA68XR0khajfK0KChn6uZk7hXEMcSeXP2dQPPF6PQZS80A5i9jueLLJ9nJs28CTf5qrgcK5zFZJYjbCTSeAprOhV6pT0klsPGTTHo5+iZw5TR/50gUVwLza5gwE0pPO3D2ILPcErFlU5QRcdvswLKNwMe+AJRWqaP6uELSIlsuMMe56RyLFozHzZ/mvTJz1ZHIuB3M3hrqBdoaKZyGOuZZz1RLoqrVfI83fpLpnc/+mHXH9comWazA3IXAXV8HqlaFtxXyuoETe4ADO/g+xyOvmJ1LPvW3gNUOvPs08N7zfMCMR0E5sPEevjY1I3ys+TzwxhMsJuGeob/PLELEnZYF3PkA8IkHOKNOhavngLq9wAe7gNMHmCqpN5N/6WHgS3+nnp0cwXprZw7ynid28+HiGJzeDGWzAx//InDP/wQqVvIev/w2sPc5Psi0sNmBpTcAX/1nflU59z7w+q+AVx5VR8JZtY3/D1s/x+9PHwB2/AzY84z+3xJgR5RPfgO48W51hA+GP/4E2PPsxCwAgyFr7pmgfAlwx18BX/57YPNnWMjfEsUKKcGlxOptwH3fAe77X5xxU9KmV0hxTjGwaC3bB310j49R6Hr4vEB3Gyu1aFVjmVPKfPPxsNh4j+UbR89VrWYXlkhlpcqqmeKqhdtFS0rrfSUBIu6ZpKQKuPebnP3yy9TR6JCWCazaAjz4CC2PSF05x2Pd7cDiteHnVm6hyPTweuh7uNbEJYNKfknk5U5ZFe8R+jdLSWXFmfHujUAhyfwS9Szp76IF4HaqI0mBiHsmsVhZ7ugTX+OsmlukXjHzmMxAaiath7v/O1BaqV4RGZOJRR6Wb2JLo1AyczirVq4KPx+K1xOo1tKmjjCvPGsOHV565Z+W3cR7hNaDM5mARdcB190aeuUowfdctEC7CeFgL9DZRAdkkuani7hnGouVQlt7G7BgmToaHUwmzuDrbgcqVk3eWWdNAZZcz5lfNYPNFprIq7aFn1e5cga4dkU9SzJygIracE86Ag+m9Gxg6fXapnt+GQVeWj226ITFCsytAHILue5X6WljdRk9R2ASIOKORG8HcOk4zbvgcf4wPeQuh74Da/lGfqC1Pnh6uBzAsTeBg38aexx9g5VHO5vVV5Fgy90l61hEcaKYTBTYpnv1lxJli4AVN3Ftq1dt9cppoKNJPUsycrXFbQ2stRcsB3I0Zt+UVNaIW/2xscsNi42+AXX7K0jn1YlvwRkUEXckzh8B/vgI8NhDo8evv08PcNM5rue0BF60gGvNrDnqiD4D3cCP7we+f/fY44df4H3ff2V8r3hVYKabKDY7Wwhv+AQdalqkZrCz59rtFJwW7ZdZRFGr6V9mTqDHtyJuezr3tQt0HioAHyg3/DdWdQ11FlqD4tawUvx+vp/GCNtoBkfEHYn+LqDxNPdKg8fxd7m189Ovjwpci7QsICtPPTs1BruBE+8CrzwGvPUUe4tpkTVncn2+8+ZStNlzxpq+oeSXcna3p6kjxDnC4opdGpZFRmDdHrrmtliBnHzee7yAnowcoPo6PlxSQ34vq43WgNbM7XIwDqD5ojqSVIi4I+Hzsn2t2zV6uBzcYmm9yIZ3A93qq8icYkZPzQQ+X+BD2wAc3qlfZthsHr+UsUp+KQNWInUVTc+m5zrYDEHF7wfaG4HLp9URvh97BjB/6ehrcwqB2q10QKr9vUMJrsuvv3PUK26xAOk5XC5oPcjaGhg5GI0IvlnEJD4FQhh+P4U+3E/xa2G16ZuxU8XjAga6ZsYDnFdMM75ixViTWcVipfPqhrsoSC3aLwOXdSLRVDNaz9zWIiUVWH8HfQkWK5cJJZV0HGpZG1fOMGovyRFxTxWLFcjM4wdOb9ZzDDFUdCbJ0Fm/BvFOojTxwuX0gqdnT2y2T0nj2rx8ifbv3NnMZYqWhzrUjM7Ippm9fBNDTSNhtdHptmA5Z/zMPGDRGv0Z/8ppfc99EjGB/9Ekx2rjfmpa1uiRnk3P8pL1wNIb9dfV/V363m0tTCauK0PvFXpk5nG/efv9Y+Oogwz3T6wvtjWF0WirI2xxhWKxch988VptJ9hgT6B3WM/YB0xw5s7MA8prgBU3s/2RWeMj6PNqOwxrt3Dtnp3PUFctcY+3555kSH9um50f1kVr+aFRcbtGvcWL1/JYtpHOpTsfpHmpN4t+sAt4/9Vwh9uqrTy08PspzIoVo/cKPTZ/BrjlS/yAW20ANMzZ91+hw6+rRR0Jp3IV47GXbIhsFqs4R7iH3FyvjtBULqkCiheEO9DMZm53HX0DKJrHZA+tsFGfF+jp4O+nmty5cxnHP9gD3PE1Og9DHw5eD9B2CXj7d8DV80CSp02IuCOJOy2TTrGq1bxm0VqahAuW0WGmJ+xLJ4BDL3NPPHQWGk/cZgswdwG9wx/dK+SoWMm97JTUscL2ebm3+9ovgbOH9D34QbZ8Flh3m3boZmcz8OHb3M7T+v0y84CORv6ObsWxZ0+n93vJBmWPP9AJpbOZTrllG8fGAPR1Aqf3AxePM7pP9YTbUoCRASArnwkjVlv4g8ntBE7t5wNEL9ElidCwiYQw0rMpuPLFo0dpNZ1K6syCoKPNCXzwFnDhg/EzmlQsVjqKQu8VeuSXaq91fT7OZruf5T2H+tUrRjFbmHddcz1TNVW8Hgbo7HyCD6ZhjZ+VU8CHjRqHjsBe/fnD+imW193CAB8tj3t3K7D3j8DeZ+kQU9fuZguXQhvu5ANOtTg8Lj5whvrCzycpIu6ZxuMG6o8x0kzLbJ1pfD6gtx04tov739euqleEk2Ln2nXhcu0w1b5O4OKHwIdvUWh65n3lKkaOqQ+4kX6g8QwfNqo4AS45tB4qzhFuLR59A6jbAzSd0XZGzl3In6GFx804hIEIOfVJgoh7pghujXU2AS/+jB+yaOcQu51st3v8XeA3D3MbajxnmslEx9yW+zh7q/j9QMMJFlhwjjCPWy8+u7iCpndOYXhIqtfLbqHN9dpZYnp0XqXV0d7IKjfnj/LeE8Xno8lefzRywYwkQcQ9U3hc/GA9/n+Bo6+zFFK0OX8Y+P0Pgd/+PWc9LRGGYktl5ZKqVWPXswhEdtUfBep2Bxxb7RRZe6N6JSkopWNMjVrzuPmQmIx53FDHh0qQI6/z3hMlmN45UxVpDICIezr4fPxQHXsT+N0PgCe+R3N2qG/sVtBEcI4A+18E3nkaOLmX4tLC6wGazjK+/b3nGTwSSdgAnXGbP01ha+1rN53hzw2awz4vcHKPfox2fhlw0710RIYWp/C4WCWmvyv0an2G+lg15dLx0XPdbRT81Qkmfwz18vUi7o/Q+B8Wwmi5wBpgbzwRfrz2S+D5f+XMuePnAUG+xyyyqQgboEn91pOMH3/zN8Cp99QrSHA/3OWkKRrJM45g8YNFjApL0YkPH+zl9tLymxkaWruV33s82lF4aVnAghXAsk30YAdxu+h36O2Y2EPn/FGa5KHmtNvJZcaZQ6FX6jPQzaw5PUdeEiJbYZG2wk7updAOvcI48uBRt4cVOo+/w9luoFs7I0plvK2wwV5mfl2u4xrUamOqpc0e7hk2mRnl1d9Jr7JWsoZK4TxgzXbWKNNL2xweCATK1I7urc+rYSmjnMKxzjOTiTO2H5w1g5aG308ve+0W7iyoZnsoXg+w6zfcXVBj9F0OetVrtzBgRfWOB/G66SV/9TEm1GgFwCQhMnNHYqCHzqGGuvDj6nmKa6qzdCR6O4ALH3JW05uNNtwBLLtx7H6xisnEPfKVN6sj4VTWMrBl2+fDj+o1+vewBbzvheVj98Sb68d/8Pi8/BteOs7INpXeDv6tm86NnwQy1MeHYTT/P2YhIu5EpqMRePtJfQ94fhnFvWS9OhKOPY0ZXUs2qCPTx2wB8ooYTlqmVI+9fFLfGYeAj2Hfi0DzBf21clczsO8FXqtHW6N+wkoSI+JOZAZ6gNMH6XkeHlBHKazF62huj0fNDYyqy4hQSXSqmC3My160Jvx8pJnb7QCOBKLJ9Ezp7nbg8OuMbNPzLXQ1A1djEFMwyxBxJzIeF4NIDr6sH06ZXwbUbNDOkjKZaDav2sagE7219kxQvph+i9D89e5Wll4a1AhGGe5nmOllnQdXENcI87Pr9uh737tamCwihCHiTnRcDiaDXD2vbZqmpNLptfmzgdTNEKdTMNR0yTrGiav4fBRPf9fEjoFuwDGs7ThMzeCavSZkieAYYuqlVm51dyt/r56O8dfTCAj80Mtcl6tr6uEBzurdOpF0SYyIO9HxuoErZ9m5Q8vpBDD98uZPM9sq1PFlswMrNzNwRXV2ISC+lkss3zSRo24v19F6kWeli7iut6aMJrZ0tXI7MRSflzP6oVcp3Ei4nZy5Wy+O9T+01HOfX68yTRIj4p4tHNnJ6DEtLFYmc2z6VHgF09R0NkjQmrUBOqF2/Az4twcndvx74Lh0Qv1JJL+EnvXQYhJdLWPF3dVKD/lEouoQ2FobGWQEmhrU0nCS4hbGIOKeLTSdobg7dLzP9nRg0z2suGpNodhrt3ItnKqRSeZ2BhJcdo01v/WO3g5uS53ax3WwitkClFQwnTSYvdbRCFw+FX5d4ynGD0xE2EH8foanqo0Bm+v1k1uSHBH3bGE4kBRxar86QixWRqBVX8fU0JxC7j9n5Gg70prr9feX9fD7aUbX7eHsrRW1llPEFkQpgeXByCDv0RKYpR1DgdbAOlbIeLRe5N5/WwP7fw3381xvh3qlIBFqgfI/RfO5LvUHYsU/mqnaWTzg7KHJJUGMR/kiOrmG+8Pv1dNGp9ne58auK4M4hwGziSIe7AH6u0dfP9DN93jpQ65DTSZg0TqKe6hv9Lq+a5xND73M6LrOCCmiWowMsHBCWiYFHvp7DPbwHqG/hz2NhRFTM1i88ODLjPKbLB43/7/saQy/vXSce+BtYpZrIS18LVaWBarZMLa3l3OYwq4/Fn5+OpRWc3ZVu4IMD3A2Pb1ffz8X4OvW384Pt1Y45r4XOZulZfFBsnTj6CwKME689SIddNOZ8dKzWap4xU3h550jTHs9umvUWRb6XhpP8ZjqvYP3XbKB+/8NJyR/WwcRNwICt9k1MqUCOdp60VNTwWLlmlg1lf1+esY9Lv2ADgRqdtvGadXrGqH5azKxhpktxHMdxOsBPM6x20qTwWQe/buF4WdOtzuk1VLoe/G4+XtO9d4f3TfwszzupG3RGwkRtyAYFHWqEgTBIIi4BcGgiLgFwaCIuAXBoIi4BcGgiLgFwaCIuAXBoIi4BcGgiLgFwaCIuAXBoIi4BcGgiLgFwaCIuAXBoIi4BcGgiLgFwaCIuAXBoIi4BcGgiLgFwaCIuAXBoIi4BcGgiLgFwaCIuAXBoIi4BcGgiLgFwaCIuAXBoPx/KnZ9GN+FF1kAAAAASUVORK5CYII=;" vertex="1" parent="1">
          <mxGeometry x="359" y="440" width="80.32" height="80" as="geometry" />
        </mxCell>
        <mxCell id="C7zA0iFIi32h_nJz_R8H-37" value="QuickSight" style="text;strokeColor=none;align=center;fillColor=none;html=1;verticalAlign=middle;whiteSpace=wrap;rounded=0;labelBackgroundColor=light-dark(#FFFFFF,#FFFFFF);" vertex="1" parent="1">
          <mxGeometry x="849" y="756" width="60" height="30" as="geometry" />
        </mxCell>
        <mxCell id="C7zA0iFIi32h_nJz_R8H-38" value="CloudWatch Logs" style="text;whiteSpace=wrap;html=1;labelBackgroundColor=light-dark(#FFFFFF,#FFFFFF);" vertex="1" parent="1">
          <mxGeometry x="824" y="482" width="110" height="40" as="geometry" />
        </mxCell>
        <mxCell id="C7zA0iFIi32h_nJz_R8H-39" value="CloudWatch Logs" style="text;whiteSpace=wrap;html=1;labelBackgroundColor=light-dark(#FFFFFF,#FFFFFF);" vertex="1" parent="1">
          <mxGeometry x="344.16" y="130" width="110" height="26" as="geometry" />
        </mxCell>
        <mxCell id="C7zA0iFIi32h_nJz_R8H-41" value="Reddit API" style="text;whiteSpace=wrap;html=1;labelBackgroundColor=light-dark(#FFFFFF,#FFFFFF);" vertex="1" parent="1">
          <mxGeometry x="126.96000000000001" y="370" width="66.08" height="26" as="geometry" />
        </mxCell>
        <mxCell id="C7zA0iFIi32h_nJz_R8H-43" value="&lt;div&gt;Amazon&lt;/div&gt;EventBridge Scheduler" style="text;whiteSpace=wrap;html=1;align=center;labelBackgroundColor=light-dark(#FFFFFF,#FFFFFF);" vertex="1" parent="1">
          <mxGeometry x="251.92000000000002" y="361" width="66.08" height="26" as="geometry" />
        </mxCell>
        <mxCell id="C7zA0iFIi32h_nJz_R8H-44" value="&lt;div&gt;Amazon&lt;/div&gt;EventBridge Scheduler" style="text;whiteSpace=wrap;html=1;align=center;labelBackgroundColor=light-dark(#FFFFFF,#FFFFFF);" vertex="1" parent="1">
          <mxGeometry x="725.96" y="220" width="66.08" height="26" as="geometry" />
        </mxCell>
        <mxCell id="C7zA0iFIi32h_nJz_R8H-47" value="Amazon&lt;div&gt;Comprehend&lt;/div&gt;" style="text;whiteSpace=wrap;html=1;align=center;labelBackgroundColor=light-dark(#FFFFFF,#FFFFFF);" vertex="1" parent="1">
          <mxGeometry x="506.08" y="360" width="25.84" height="26" as="geometry" />
        </mxCell>
        <mxCell id="C7zA0iFIi32h_nJz_R8H-48" value="Praw" style="text;strokeColor=none;align=center;fillColor=none;html=1;verticalAlign=middle;whiteSpace=wrap;rounded=0;labelBackgroundColor=light-dark(#FFFFFF,#FFFFFF);" vertex="1" parent="1">
          <mxGeometry x="369" y="530" width="60" height="30" as="geometry" />
        </mxCell>
      </root>
    </mxGraphModel>
  </diagram>
</mxfile>
